<svg width="64" height="64" viewBox="0 0 64 64" fill="none" xmlns="http://www.w3.org/2000/svg">
  <rect width="64" height="64" rx="18" fill="url(#paint0_linear)"/>
  <path d="M18 18C18 15.7909 19.7909 14 22 14H39C42.866 14 46 17.134 46 21V46C46 47.1046 45.1046 48 44 48H22C19.7909 48 18 46.2091 18 44V18Z" fill="white" fill-opacity="0.94"/>
  <path d="M23 20C23 18.8954 23.8954 18 25 18H38C39.6569 18 41 19.3431 41 21V43H25C23.8954 43 23 42.1046 23 41V20Z" fill="#6D6AF8"/>
  <path d="M28 25H36" stroke="white" stroke-width="2.5" stroke-linecap="round"/>
  <path d="M28 30H36" stroke="white" stroke-width="2.5" stroke-linecap="round" opacity="0.8"/>
  <path d="M28 35H34" stroke="white" stroke-width="2.5" stroke-linecap="round" opacity="0.65"/>
  <path d="M23 43C23 40.7909 24.7909 39 27 39H46" stroke="#171B3A" stroke-width="2.5" stroke-linecap="round"/>
  <defs>
    <linearGradient id="paint0_linear" x1="8" y1="8" x2="56" y2="58" gradientUnits="userSpaceOnUse">
      <stop stop-color="#312E81"/>
      <stop offset="1" stop-color="#6D6AF8"/>
    </linearGradient>
  </defs>
</svg>